<svg width="29" height="28" viewBox="0 0 29 28" fill="none" xmlns="http://www.w3.org/2000/svg">
<g clip-path="url(#clip0_6_299)">
<path d="M4.8171 28H14.0586V18.0469H10.7383V14.7656H14.0586V10.6641C14.0586 8.40244 15.9205 6.5625 18.209 6.5625H22.3594V9.84375H19.0391C18.1236 9.84375 17.3789 10.5797 17.3789 11.4844V14.7656H22.2096L21.6562 18.0469H17.3789V28H24.8496C27.1382 28 29 26.1601 29 23.8984V4.10156C29 1.83994 27.1382 0 24.8496 0H4.8171C2.52855 0 0.666718 1.83994 0.666718 4.10156V23.8984C0.666718 26.1601 2.52855 28 4.8171 28ZM2.32687 4.10156C2.32687 2.74463 3.44402 1.64062 4.8171 1.64062H24.8496C26.2227 1.64062 27.3399 2.74463 27.3399 4.10156V23.8984C27.3399 25.2554 26.2227 26.3594 24.8496 26.3594H19.0391V19.6875H23.0626L24.1693 13.125H19.0391V11.4844H24.0195V4.92188H18.209C15.005 4.92188 12.3985 7.49774 12.3985 10.6641V13.125H9.07816V19.6875H12.3985V26.3594H4.8171C3.44402 26.3594 2.32687 25.2554 2.32687 23.8984V4.10156Z" fill="white"/>
</g>
<defs>
<clipPath id="clip0_6_299">
<rect width="28.3333" height="28" fill="white" transform="translate(0.666718)"/>
</clipPath>
</defs>
</svg>
